<svg width="51" height="51" viewBox="0 0 51 51" fill="none" xmlns="http://www.w3.org/2000/svg">
<rect x="0.729492" width="50.2697" height="50.2697" rx="8.10801" fill="#3A3A3A"/>
<path d="M26.1349 14.8623C23.5679 14.8624 21.0847 15.7759 19.1296 17.4394C17.1745 19.1029 15.8751 21.4078 15.4639 23.9416C15.0526 26.4755 15.5565 29.073 16.8852 31.2694C18.2139 33.4658 20.2808 35.1177 22.7161 35.9296C23.2566 36.0242 23.4593 35.6999 23.4593 35.4161C23.4593 35.1594 23.4458 34.308 23.4458 33.4026C20.7296 33.9026 20.0269 32.7405 19.8107 32.1324C19.5708 31.541 19.1904 31.0169 18.7026 30.6054C18.3242 30.4027 17.7837 29.9027 18.6891 29.8892C19.0348 29.9267 19.3663 30.047 19.6557 30.2399C19.945 30.4328 20.1836 30.6926 20.3512 30.9972C20.4991 31.2629 20.6979 31.4967 20.9363 31.6853C21.1747 31.874 21.4479 32.0137 21.7404 32.0966C22.0329 32.1794 22.3389 32.2038 22.6408 32.1682C22.9427 32.1326 23.2346 32.0377 23.4998 31.8891C23.5466 31.3395 23.7915 30.8257 24.189 30.4432C21.7836 30.173 19.2701 29.2405 19.2701 25.1055C19.255 24.031 19.6514 22.9915 20.3782 22.2001C20.0477 21.2663 20.0864 20.2415 20.4863 19.3353C20.4863 19.3353 21.3917 19.0515 23.4593 20.4434C25.2282 19.9568 27.0957 19.9568 28.8646 20.4434C30.9321 19.038 31.8376 19.3353 31.8376 19.3353C32.2376 20.2415 32.2762 21.2663 31.9457 22.2001C32.6747 22.9902 33.0715 24.0306 33.0538 25.1055C33.0538 29.254 30.5267 30.173 28.1214 30.4432C28.3794 30.7047 28.5781 31.0187 28.704 31.3638C28.8299 31.7089 28.8801 32.077 28.8511 32.4432C28.8511 33.8892 28.8376 35.0513 28.8376 35.4161C28.8376 35.6999 29.0403 36.0378 29.5808 35.9297C32.0118 35.1111 34.0727 33.4553 35.3958 31.2578C36.7189 29.0603 37.2179 26.4641 36.8039 23.9327C36.3898 21.4013 35.0896 19.0994 33.1354 17.438C31.1811 15.7765 28.7 14.8636 26.1349 14.8623Z" fill="white"/>
</svg>
