<svg width="51" height="51" viewBox="0 0 51 51" fill="none" xmlns="http://www.w3.org/2000/svg">
<rect width="50.2697" height="50.2697" rx="8.10801" fill="#3A3A3A"/>
<path d="M30.8107 14.5957H20.0001C17.0148 14.5957 14.5947 17.0158 14.5947 20.001V30.8117C14.5947 33.797 17.0148 36.2171 20.0001 36.2171H30.8107C33.796 36.2171 36.2161 33.797 36.2161 30.8117V20.001C36.2161 17.0158 33.796 14.5957 30.8107 14.5957Z" stroke="white" stroke-width="2.70267" stroke-linecap="round" stroke-linejoin="round"/>
<path d="M29.7297 24.7251C29.8631 25.6248 29.7094 26.5437 29.2905 27.3511C28.8716 28.1584 28.2088 28.8131 27.3964 29.222C26.5839 29.631 25.6632 29.7733 24.7652 29.6288C23.8672 29.4843 23.0376 29.0603 22.3945 28.4172C21.7513 27.774 21.3274 26.9444 21.1829 26.0464C21.0384 25.1484 21.1807 24.2277 21.5896 23.4153C21.9985 22.6028 22.6532 21.94 23.4606 21.5211C24.2679 21.1022 25.1868 20.9485 26.0865 21.0819C27.0043 21.218 27.8539 21.6457 28.5099 22.3017C29.166 22.9577 29.5936 23.8074 29.7297 24.7251Z" stroke="white" stroke-width="2.70267" stroke-linecap="round" stroke-linejoin="round"/>
<path d="M31.3516 19.4609H31.3624" stroke="white" stroke-width="2.70267" stroke-linecap="round" stroke-linejoin="round"/>
</svg>
